Coordinates
version=1
nRows=27
nColumns=12
inDegrees=yes

Units are S.I. units (second, meters, Newtons, ...)
Angles are in degrees

endheader
time	SC_y	SC_z	SC_x	AC_y	AC_z	AC_x	GH_y	GH_z	GH_yy	EL_x	PS_y
       0.0               -17.6          31.49          27.67          50.06         -9.444          2.082         -52.02          18.13         -165.5          93.56          96.77
  0.008628              -17.61          31.49          27.67          50.06         -9.444          2.084          -52.0          18.13         -165.5          93.56          96.78
   0.01726              -17.61          31.49          27.67          50.07         -9.444          2.086         -51.97          18.13         -165.4          93.55          96.79
   0.02588              -17.62           31.5          27.67          50.07         -9.444          2.088         -51.94          18.14         -165.4          93.54           96.8
   0.03451              -17.62           31.5          27.66          50.07         -9.444          2.091          -51.9          18.14         -165.4          93.54           96.8
   0.04314              -17.63           31.5          27.66          50.08         -9.443          2.093         -51.87          18.15         -165.4          93.53          96.81
   0.05177              -17.63           31.5          27.66          50.08         -9.443          2.096         -51.83          18.15         -165.4          93.52          96.82
    0.0604              -17.64           31.5          27.66          50.09         -9.443          2.099         -51.79          18.15         -165.3          93.52          96.83
   0.06902              -17.64           31.5          27.66          50.09         -9.443          2.102         -51.74          18.16         -165.3          93.51          96.84
   0.07765              -17.65          31.51          27.65          50.09         -9.442          2.106          -51.7          18.17         -165.3           93.5          96.85
   0.08628              -17.66          31.51          27.65           50.1         -9.442          2.109         -51.65          18.17         -165.2          93.49          96.87
   0.09491              -17.67          31.51          27.65           50.1         -9.442          2.113         -51.59          18.18         -165.2          93.48          96.88
    0.1035              -17.68          31.51          27.65          50.11         -9.441          2.117         -51.53          18.18         -165.2          93.47          96.89
    0.1122              -17.69          31.51          27.64          50.12         -9.441          2.122         -51.47          18.19         -165.1          93.45          96.91
    0.1208               -17.7          31.52          27.64          50.12          -9.44          2.127          -51.4           18.2         -165.1          93.44          96.93
    0.1294              -17.71          31.52          27.64          50.13          -9.44          2.132         -51.33          18.21         -165.0          93.43          96.94
     0.138              -17.72          31.52          27.63          50.14         -9.439          2.138         -51.25          18.22         -165.0          93.41          96.96
    0.1467              -17.73          31.53          27.63          50.15         -9.439          2.144         -51.16          18.23         -164.9           93.4          96.98
    0.1553              -17.75          31.53          27.62          50.16         -9.438          2.151         -51.07          18.24         -164.8          93.38          97.01
    0.1639              -17.76          31.54          27.62          50.17         -9.438          2.159         -50.96          18.25         -164.8          93.36          97.03
    0.1726              -17.78          31.54          27.61          50.18         -9.437          2.167         -50.85          18.27         -164.7          93.33          97.06
    0.1812               -17.8          31.54          27.61          50.19         -9.436          2.176         -50.72          18.28         -164.6          93.31          97.09
    0.1898              -17.82          31.55           27.6          50.21         -9.435          2.186         -50.58           18.3         -164.5          93.28          97.13
    0.1984              -17.84          31.56          27.59          50.22         -9.434          2.197         -50.43          18.32         -164.4          93.25          97.16
    0.2071              -17.87          31.56          27.58          50.24         -9.433           2.21         -50.25          18.34         -164.3          93.22          97.21
    0.2157               -17.9          31.57          27.57          50.26         -9.432          2.223         -50.06          18.36         -164.1          93.18          97.25
    0.2243              -17.93          31.58          27.56          50.28         -9.431          2.239         -49.85          18.38         -164.0          93.14          97.31
